<?xml version="1.0" standalone="no"?>
<!DOCTYPE svg PUBLIC "-//W3C//DTD SVG 20010904//EN"
 "http://www.w3.org/TR/2001/REC-SVG-20010904/DTD/svg10.dtd">
<svg version="1.0" xmlns="http://www.w3.org/2000/svg"
 width="1299.000000pt" height="1299.000000pt" viewBox="0 0 1299.000000 1299.000000"
 preserveAspectRatio="xMidYMid meet">
<metadata>
Created by potrace 1.14, written by Peter Selinger 2001-2017
</metadata>
<g transform="translate(0.000000,1299.000000) scale(0.100000,-0.100000)"
fill="#000000" stroke="none">
<path d="M7288 12985 c-2 -1 -47 -5 -100 -9 -85 -5 -197 -18 -278 -31 -14 -3
-43 -7 -65 -10 -185 -27 -468 -97 -683 -171 -601 -205 -1123 -526 -1552 -954
-97 -98 -196 -207 -269 -298 -28 -35 -51 -60 -52 -55 0 4 -2 15 -4 23 -1 8
-10 56 -19 105 -38 213 -53 280 -90 407 -41 136 -82 241 -132 334 -145 272
-382 469 -626 520 -277 58 -580 -74 -682 -298 -41 -89 -54 -146 -54 -244 -1
-186 62 -364 234 -665 112 -195 239 -497 302 -719 35 -121 88 -337 96 -394 4
-21 8 -41 10 -45 2 -3 7 -28 11 -56 4 -27 9 -59 11 -70 12 -79 34 -229 39
-275 4 -30 8 -68 10 -85 2 -16 6 -61 10 -100 3 -38 8 -86 10 -105 2 -19 7 -78
10 -130 3 -52 8 -120 10 -150 3 -30 7 -111 10 -180 6 -124 8 -177 20 -530 10
-317 24 -638 30 -725 2 -33 7 -103 10 -155 3 -52 8 -115 10 -140 3 -25 7 -81
10 -125 2 -44 7 -109 10 -145 2 -36 7 -101 10 -145 4 -44 8 -100 10 -125 2
-25 6 -88 9 -140 4 -52 8 -117 11 -145 13 -158 16 -197 20 -265 2 -42 6 -105
9 -140 3 -36 8 -96 10 -135 3 -38 8 -110 11 -160 3 -49 8 -103 10 -120 2 -16
7 -84 10 -150 4 -66 9 -128 11 -137 1 -10 6 -68 9 -130 4 -62 8 -131 11 -153
2 -22 6 -81 9 -131 3 -51 7 -109 9 -130 3 -22 7 -82 11 -134 3 -52 8 -115 10
-140 2 -25 7 -92 10 -150 4 -57 8 -118 10 -135 2 -16 7 -73 10 -125 5 -91 9
-139 20 -275 2 -33 7 -98 10 -145 3 -47 7 -112 10 -145 3 -33 7 -91 10 -130 3
-38 7 -101 10 -140 3 -38 8 -101 10 -140 3 -38 7 -95 10 -125 2 -30 7 -98 10
-150 4 -52 8 -111 10 -130 2 -19 6 -84 10 -145 3 -60 8 -126 10 -145 3 -19 7
-76 10 -127 3 -51 8 -116 10 -145 3 -29 7 -87 10 -128 2 -41 7 -104 10 -140 5
-64 11 -156 20 -295 3 -38 7 -92 10 -120 2 -27 7 -88 10 -135 4 -47 8 -107 10
-135 2 -27 6 -97 10 -155 3 -58 8 -118 10 -135 2 -16 7 -79 10 -140 4 -60 8
-126 10 -145 6 -72 17 -176 20 -199 3 -13 7 -45 11 -70 4 -25 8 -55 10 -66 3
-11 7 -36 10 -55 12 -72 81 -259 124 -335 59 -104 180 -226 281 -282 147 -84
313 -100 452 -46 210 82 369 326 404 621 12 99 5 436 -11 532 -3 14 -7 63 -11
110 -3 47 -8 99 -10 115 -2 17 -7 66 -10 110 -3 44 -8 98 -10 120 -3 22 -7 69
-10 105 -3 36 -7 85 -9 110 -3 25 -7 77 -11 115 -10 117 -15 173 -20 228 -3
28 -7 83 -10 121 -3 37 -7 87 -10 110 -3 22 -8 75 -10 116 -3 41 -7 91 -10
110 -5 40 -13 126 -20 220 -3 36 -7 85 -10 110 -2 25 -7 77 -10 115 -3 39 -8
86 -10 105 -2 19 -7 71 -10 115 -3 44 -8 100 -10 125 -3 25 -7 74 -10 110 -3
36 -7 85 -9 110 -3 25 -8 77 -11 115 -3 39 -8 86 -10 105 -2 19 -7 69 -10 110
-4 41 -8 93 -10 115 -2 22 -6 74 -10 115 -3 41 -8 91 -10 110 -3 19 -7 69 -10
110 -3 41 -7 95 -10 120 -2 25 -7 74 -10 110 -6 80 -14 171 -20 230 -3 25 -7
77 -10 115 -3 39 -7 90 -10 115 -7 70 -15 159 -20 230 -3 36 -7 81 -9 100 -3
19 -8 71 -11 115 -3 44 -8 91 -10 105 -2 14 -6 66 -10 115 -4 50 -8 104 -10
120 -2 17 -6 64 -10 105 -3 41 -8 95 -11 120 -2 25 -6 72 -9 105 -13 161 -16
193 -20 230 -6 51 -14 144 -20 220 -2 33 -7 80 -9 105 -3 25 -8 79 -11 120 -3
41 -8 95 -10 120 -2 25 -7 77 -10 115 -3 39 -8 88 -10 110 -3 22 -7 72 -11
110 -3 39 -7 90 -10 115 -2 25 -6 77 -9 115 -3 39 -7 90 -10 115 -6 63 -17
199 -32 410 -15 221 -9 786 12 950 15 121 35 255 51 332 3 15 5 30 5 33 0 2 5
19 10 37 6 18 12 40 14 48 89 395 336 866 615 1175 409 451 859 703 1450 810
138 25 400 35 560 21 149 -13 200 -20 337 -50 238 -51 457 -147 766 -335 378
-228 532 -291 728 -296 313 -9 532 171 625 511 24 92 26 280 4 389 -41 197
-191 423 -379 575 -24 19 -48 40 -55 45 -65 60 -351 217 -511 280 -176 70
-506 168 -635 189 -19 3 -46 8 -60 11 -54 10 -76 14 -110 19 -58 8 -202 26
-260 32 -55 6 -556 14 -562 9z"/>
<path d="M9007 8444 c-162 -42 -311 -174 -402 -354 -26 -52 -59 -144 -57 -157
1 -2 -4 -17 -9 -35 -27 -95 -29 -300 -4 -448 2 -14 6 -42 9 -62 7 -44 41 -200
55 -245 5 -18 8 -33 6 -33 -3 0 0 -11 5 -25 5 -14 12 -36 14 -48 3 -12 27
-116 55 -232 49 -211 94 -417 111 -510 5 -27 12 -61 15 -75 5 -23 60 -339 71
-402 2 -16 6 -41 9 -56 3 -16 7 -44 9 -63 3 -19 7 -47 10 -64 4 -29 13 -91 21
-145 2 -14 6 -50 10 -80 3 -30 8 -66 10 -80 2 -14 7 -47 10 -75 3 -27 7 -61
10 -75 2 -14 7 -54 10 -90 3 -36 7 -81 9 -100 6 -50 14 -134 21 -215 3 -38 8
-92 10 -120 3 -27 7 -90 10 -140 4 -49 8 -117 10 -150 27 -379 27 -1288 0
-1670 -36 -530 -193 -829 -484 -926 -89 -30 -220 -33 -321 -7 -265 66 -472
257 -629 581 -81 167 -186 458 -251 692 -12 44 -26 91 -30 105 -8 23 -48 186
-84 340 -22 93 -62 297 -81 415 -3 17 -9 57 -15 90 -6 33 -12 74 -15 90 -3 17
-14 102 -25 190 -27 214 -28 222 -34 280 -20 195 -26 264 -41 480 -3 44 -8
107 -10 140 -3 33 -7 110 -10 170 -3 61 -7 148 -9 195 -8 155 -22 594 -31 995
-10 430 -22 702 -40 855 -3 19 -7 60 -10 90 -10 94 -52 264 -84 342 -164 393
-564 536 -823 294 -138 -130 -208 -321 -211 -574 0 -82 11 -321 18 -387 2 -16
6 -79 10 -140 8 -132 12 -197 19 -296 3 -41 8 -112 11 -159 3 -47 8 -107 10
-135 2 -27 7 -93 10 -145 3 -52 7 -120 10 -150 2 -30 7 -98 10 -150 3 -52 7
-117 10 -145 3 -27 7 -86 10 -130 2 -44 7 -114 10 -155 6 -93 14 -210 20 -315
5 -76 8 -123 20 -275 2 -36 7 -105 10 -155 3 -49 7 -115 10 -145 3 -30 7 -95
10 -145 3 -49 8 -118 10 -152 11 -139 14 -193 20 -293 4 -58 8 -125 10 -150 2
-25 6 -85 10 -135 3 -49 8 -117 10 -150 5 -71 13 -191 20 -295 3 -41 7 -104 9
-140 3 -36 8 -110 11 -165 8 -143 22 -256 50 -420 7 -40 25 -118 42 -185 8
-30 18 -71 23 -90 34 -133 126 -364 209 -525 52 -102 56 -108 104 -183 15 -24
27 -45 27 -48 0 -5 130 -186 139 -194 3 -3 24 -27 46 -55 56 -71 227 -239 315
-310 194 -157 389 -273 601 -358 88 -35 269 -92 328 -102 19 -3 37 -7 40 -9 3
-2 33 -7 66 -11 32 -3 62 -8 65 -10 7 -4 206 -18 255 -18 47 0 238 14 244 18
4 1 28 6 55 9 177 24 370 88 571 188 366 183 672 518 816 893 11 28 24 59 29
70 33 69 108 359 125 480 3 23 7 51 10 64 2 13 7 49 11 80 3 31 8 70 10 86 19
141 25 787 11 1090 -4 77 -9 190 -12 250 -2 61 -7 142 -10 180 -2 39 -7 115
-10 170 -3 55 -8 123 -10 150 -2 28 -6 100 -10 160 -3 61 -8 121 -10 135 -3
14 -7 66 -10 115 -4 50 -8 104 -10 120 -2 17 -6 66 -10 110 -4 44 -9 96 -11
115 -2 19 -6 62 -9 95 -6 68 -12 131 -19 184 -3 20 -8 63 -11 96 -6 62 -12
111 -20 180 -3 22 -8 63 -10 90 -5 47 -20 172 -30 240 -2 17 -7 53 -10 80 -4
28 -8 60 -10 71 -2 12 -7 48 -10 80 -4 33 -9 68 -11 79 -2 11 -6 40 -10 65 -3
25 -9 70 -14 100 -5 30 -12 75 -15 100 -7 51 -34 222 -40 260 -3 14 -8 48 -11
75 -4 28 -8 53 -10 56 -2 4 -8 38 -14 75 -5 38 -12 80 -14 94 -3 14 -8 39 -11
55 -3 17 -8 46 -11 65 -3 19 -19 107 -35 195 -17 88 -32 169 -33 180 -3 18
-27 137 -42 205 -3 14 -7 36 -10 49 -13 62 -70 224 -106 298 -139 292 -414
453 -661 387z"/>
</g>
</svg>
